<svg xmlns="http://www.w3.org/2000/svg" width="37.975" height="37.964" viewBox="0 0 37.975 37.964"><g id="Group_1" data-name="Group 1" transform="translate(436.991 -292.935)"><path id="Path_191" data-name="Path 191" d="M-399.016,311.963A19,19,0,0,1-418.05,330.9a18.994,18.994,0,0,1-18.941-19.028,19,19,0,0,1,19.033-18.937A19,19,0,0,1-399.016,311.963Zm-3.182-.6a15.859,15.859,0,0,0-17.486-15.177,15.877,15.877,0,0,0-14.047,17.43,15.838,15.838,0,0,0,17.445,14.018A15.825,15.825,0,0,0-402.2,311.365Z" transform="translate(0 0)" fill="#fff"></path><path id="Path_192" data-name="Path 192" d="M-330.026,383.239c0-1.8-.03-3.606.024-5.407a1.458,1.458,0,0,1,.538-1.072,1.292,1.292,0,0,1,1.116.182c2.537,1.8,5.046,3.632,7.553,5.469a.959.959,0,0,1,0,1.744c-2.528,1.851-5.059,3.7-7.617,5.507a1.224,1.224,0,0,1-1.069.146,1.377,1.377,0,0,1-.525-1.013C-330.053,386.944-330.026,385.091-330.026,383.239Z" transform="translate(-91.098 -71.339)" fill="#fff"></path></g></svg>