<svg xmlns="http://www.w3.org/2000/svg" width="68" height="68" viewBox="0 0 68 68"><g id="Group_6" data-name="Group 6" transform="translate(-1163 -27474)"><g id="Ellipse_1" data-name="Ellipse 1" transform="translate(1163 27474)" fill="#00467f" stroke="#fff" stroke-width="2"><circle cx="34" cy="34" r="34" stroke="none"></circle><circle cx="34" cy="34" r="33" fill="none"></circle></g><path id="Path_194" data-name="Path 194" d="M665.533,95.012q6.068,0,12.136,0a2.648,2.648,0,0,1,2.858,2.842q0,7.71,0,15.42a2.649,2.649,0,0,1-2.857,2.843q-12.166,0-24.332,0a2.645,2.645,0,0,1-2.829-2.813q0-7.739,0-15.478a2.642,2.642,0,0,1,2.828-2.813Q659.436,95.01,665.533,95.012ZM653.7,96.8l-.091.139a3.808,3.808,0,0,1,.421.321q5.24,5.25,10.474,10.5c.786.789,1.234.792,2.01.014q5.258-5.273,10.514-10.548c.119-.119.228-.247.4-.43Zm-.1,17.508h23.723l-7.48-7.4c-.688.7-1.427,1.449-2.172,2.195a2.79,2.79,0,0,1-4.314,0c-.755-.755-1.508-1.512-2.226-2.233Zm-1.292-16.155v14.711l7.413-7.355Zm26.433.076-7.4,7.343,7.4,7.348Z" transform="translate(532.472 27402.424)" fill="#fff"></path></g></svg>